<svg xmlns="http://www.w3.org/2000/svg" version="1.1" xmlns:xlink="http://www.w3.org/1999/xlink" xmlns:svgjs="http://svgjs.dev/svgjs" width="250" height="250" viewBox="0 0 1500 935"><g transform="matrix(1,0,0,1,-0.9090909090909918,0.3785425101214628)"><svg viewBox="0 0 396 247" data-background-color="#333366" preserveAspectRatio="xMidYMid meet" height="935" width="1500" xmlns="http://www.w3.org/2000/svg" xmlns:xlink="http://www.w3.org/1999/xlink"><g id="tight-bounds" transform="matrix(1,0,0,1,0.2400000000000091,-0.09999999999999432)"><svg viewBox="0 0 395.52 247.2" height="247.2" width="395.52"><g><svg></svg></g><g><svg viewBox="0 0 395.52 247.2" height="247.2" width="395.52"><g transform="matrix(1,0,0,1,138.38817818181818,47.215199999999996)"><svg viewBox="0 0 118.74364363636364 152.7696" height="152.7696" width="118.74364363636364"><g><svg viewBox="0 0 118.74364363636364 152.7696" height="152.7696" width="118.74364363636364"><g><svg viewBox="0 0 118.74364363636364 152.7696" height="152.7696" width="118.74364363636364"><g><svg viewBox="0 0 118.74364363636364 152.7696" height="152.7696" width="118.74364363636364"><g id="textblocktransform"><svg viewBox="0 0 118.74364363636364 152.7696" height="152.7696" width="118.74364363636364" id="textblock"><g><svg viewBox="0 0 118.74364363636364 152.7696" height="152.7696" width="118.74364363636364"><g transform="matrix(1,0,0,1,0,0)"><svg width="118.74364363636364" viewBox="5.4 -33 25.65 33" height="152.7696" data-palette-color="#ffffff"><path d="M5.4-33L17.9-33Q22.95-33 26-30.4 29.05-27.8 29.05-23.35L29.05-23.35Q29.05-18.9 25.98-16.43 22.9-13.95 17.85-13.95L17.85-13.95 17.5-13.7 9.4-13.7 9.4 0 5.4 0 5.4-33ZM9.4-17.45L17.85-17.45Q21.4-17.45 23.13-18.93 24.85-20.4 24.85-23.35L24.85-23.35Q24.85-26.3 23.13-27.78 21.4-29.25 17.85-29.25L17.85-29.25 9.4-29.25 9.4-17.45ZM16.8-14.45L20.15-16.65 31.05 0 26.3 0 16.8-14.45Z" opacity="1" transform="matrix(1,0,0,1,0,0)" fill="#ffffff" class="wordmark-text-0" data-fill-palette-color="primary" id="text-0"></path></svg></g></svg></g></svg></g></svg></g></svg></g></svg></g></svg></g><path d="M320.689 41.215L320.689 0 73.489 0 73.489 247.2 320.689 247.2 320.689 205.985 306.913 205.985 306.913 233.423 87.266 233.423 87.266 13.777 306.913 13.777 306.913 41.215Z" fill="#ffffff" stroke="transparent" data-fill-palette-color="primary"></path></svg></g><defs></defs></svg><rect width="395.52" height="247.2" fill="none" stroke="none" visibility="hidden"></rect></g></svg></g></svg>